<svg xmlns="http://www.w3.org/2000/svg" width="700" height="480" fill="none"><g clip-path="url(#a)"><path fill="#000" d="M76.063 301.776c-.376-.093-.844-.375-1.407-.843a23.315 23.315 0 0 1-1.406-1.547 15.735 15.735 0 0 1-.984-1.688c-.282-.562-.422-1.031-.422-1.406.281-3.094 1.406-5.391 3.375-6.891 2.062-1.593 4.406-2.672 7.031-3.234a38.791 38.791 0 0 1 8.156-.844h7.172c3.281 0 6.281.188 9 .563 2.813.281 5.25 1.031 7.313 2.25 2.062 1.125 3.703 2.765 4.921 4.922 1.219 2.156 1.829 5.109 1.829 8.859 0 1.875-.094 3.562-.282 5.062a21.96 21.96 0 0 1-.703 4.219c-.375 1.313-.937 2.766-1.687 4.36-.75 1.5-1.735 3.234-2.953 5.203 3.843 1.218 7.031 2.39 9.562 3.515 2.531 1.032 4.5 2.344 5.906 3.938 1.407 1.5 2.344 3.375 2.813 5.625.562 2.156.844 4.969.844 8.437 0 4.125-.891 8.016-2.672 11.672a31.269 31.269 0 0 1-7.172 9.563c-2.906 2.718-6.328 4.875-10.266 6.468-3.937 1.5-8.109 2.25-12.515 2.25-.938 0-2.204-.14-3.797-.421a383.915 383.915 0 0 1-5.203-1.266 202.193 202.193 0 0 1-5.766-1.828c-1.969-.75-3.75-1.547-5.344-2.391-1.594-.844-2.906-1.687-3.937-2.531-.938-.844-1.406-1.688-1.406-2.531v-59.485Zm9.28 32.485c.188 2.25.094 4.593-.28 7.031a251.17 251.17 0 0 0-.985 7.031c-.281 2.25-.375 4.406-.281 6.469.094 1.969.656 3.75 1.687 5.344 1.032 1.593 2.72 3 5.063 4.218 2.344 1.125 5.578 1.922 9.703 2.391 3.469 0 6.891-.609 10.266-1.828 3.468-1.313 6.515-3.047 9.14-5.203 2.719-2.25 4.922-4.875 6.61-7.875 1.687-3.094 2.531-6.469 2.531-10.125 0-2.438-.422-4.5-1.266-6.188-.843-1.687-1.969-3.047-3.375-4.078-1.406-1.125-3.094-1.922-5.062-2.39-1.875-.469-3.891-.704-6.047-.704-2.719 0-5.156.094-7.313.282a38.217 38.217 0 0 0-6.468.843c-2.063.375-4.22.985-6.47 1.829-2.155.75-4.64 1.734-7.452 2.953Zm-2.812-14.625c0 .75.047 1.547.14 2.39.095.75.235 1.453.423 2.11.281.562.703 1.078 1.265 1.547.563.375 1.313.562 2.25.562 3.188 0 6.47-.609 9.844-1.828 3.375-1.219 6.422-2.906 9.141-5.063 2.812-2.156 5.109-4.687 6.89-7.593 1.875-3 2.813-6.328 2.813-9.985 0-.375-.094-.89-.281-1.547-.188-.75-.61-1.5-1.266-2.25s-1.641-1.453-2.953-2.109c-1.313-.75-3.094-1.359-5.344-1.828-2.156-.469-4.875-.75-8.156-.844-3.281-.094-7.266.094-11.953.563-.188.187-.422.797-.703 1.828a815.37 815.37 0 0 0-.704 3.937 208.28 208.28 0 0 0-.562 5.063 116.96 116.96 0 0 1-.422 5.484c-.094 1.781-.187 3.516-.281 5.203a80.16 80.16 0 0 0-.14 4.36Zm59.203 19.265c0-2.812.61-5.906 1.828-9.281 1.219-3.469 2.86-6.656 4.922-9.562 2.157-3 4.547-5.485 7.172-7.454 2.719-2.062 5.532-3.093 8.438-3.093 1.594 0 3.14.328 4.64.984a18.378 18.378 0 0 1 4.5 2.672 18.26 18.26 0 0 1 3.938 3.656c1.219 1.313 2.156 2.719 2.812 4.219.657 1.5.985 2.953.985 4.359.093 1.407-.281 2.625-1.125 3.657l-29.672 5.484c-.375.094-.703.562-.984 1.406-.282.75-.516 1.735-.704 2.953a146.871 146.871 0 0 0-.562 4.078l-.281 4.219a51.412 51.412 0 0 0-.141 3.656v2.391c0 2.625.609 4.781 1.828 6.469 1.313 1.594 2.953 2.812 4.922 3.656 1.969.844 4.172 1.406 6.609 1.688a67.54 67.54 0 0 0 7.453.421c2.438 0 4.735-.093 6.891-.281 2.156-.187 3.938-.281 5.344-.281 0 .375-.141.797-.422 1.266a12.85 12.85 0 0 1-.984 1.406l-1.125 1.125c-.375.281-.61.469-.704.562-.75.188-1.921.469-3.515.844-1.5.281-3.141.563-4.922.844a120.01 120.01 0 0 1-4.781.703c-1.5.187-2.532.281-3.094.281-2.906.563-5.438.516-7.594-.14-2.156-.657-3.984-1.782-5.484-3.375-1.5-1.594-2.719-3.516-3.656-5.766a37.984 37.984 0 0 1-2.11-7.453 57.341 57.341 0 0 1-.844-8.156c0-2.813.141-5.532.422-8.157Zm20.391-24.047c-.844 0-1.969.469-3.375 1.407-1.312.843-2.578 1.968-3.797 3.375a23.715 23.715 0 0 0-2.953 4.359c-.75 1.5-.984 2.813-.703 3.938 2.437.281 4.969.234 7.594-.141s5.015-.938 7.171-1.688c2.157-.843 3.938-1.781 5.344-2.812 1.406-1.125 2.063-2.25 1.969-3.375 0-1.125-.891-2.109-2.672-2.953-1.687-.938-4.547-1.641-8.578-2.11Zm29.531-52.171c1.313.187 2.438.562 3.375 1.125 1.031.468 1.828 1.359 2.391 2.671 0 1.782.047 4.266.14 7.454.188 3.093.329 6.703.422 10.828.188 4.125.375 8.578.563 13.359.187 4.781.375 9.609.562 14.484.188 4.875.329 9.704.422 14.485.188 4.781.328 9.234.422 13.359.188 4.125.328 7.781.422 10.969.094 3.187.187 5.625.281 7.312 0 .188-.047.516-.14.985 0 .469-.047 1.031-.141 1.687 0 .657-.047 1.313-.141 1.969v1.266c-.093.562-.14 1.265-.14 2.109 0 .75-.094 1.5-.282 2.25a6.168 6.168 0 0 1-.984 2.109c-.375.563-1.031.891-1.969.985l-2.39-2.953c-.094-.094-.235-1.828-.422-5.203-.094-3.469-.281-7.922-.563-13.36-.187-5.531-.375-11.719-.562-18.562-.188-6.938-.422-13.922-.703-20.953-.188-7.032-.375-13.782-.563-20.25a1930.72 1930.72 0 0 1-.422-16.735v-2.25c.094-1.125.141-2.25.141-3.375.094-1.219.141-2.344.141-3.375.093-1.125.14-1.922.14-2.39Zm20.391 0c1.312.187 2.437.562 3.375 1.125 1.031.468 1.828 1.359 2.39 2.671 0 1.782.047 4.266.141 7.454.188 3.093.328 6.703.422 10.828.187 4.125.375 8.578.563 13.359.187 4.781.374 9.609.562 14.484.188 4.875.328 9.704.422 14.485.187 4.781.328 9.234.422 13.359.187 4.125.328 7.781.422 10.969.093 3.187.187 5.625.281 7.312 0 .188-.047.516-.141.985 0 .469-.047 1.031-.14 1.687 0 .657-.047 1.313-.141 1.969v1.266c-.094.562-.141 1.265-.141 2.109 0 .75-.093 1.5-.281 2.25a6.168 6.168 0 0 1-.984 2.109c-.375.563-1.031.891-1.969.985l-2.391-2.953c-.093-.094-.234-1.828-.421-5.203-.094-3.469-.282-7.922-.563-13.36a2956.27 2956.27 0 0 1-.563-18.562c-.187-6.938-.421-13.922-.703-20.953-.187-7.032-.375-13.782-.562-20.25-.188-6.469-.328-12.047-.422-16.735v-2.25c.094-1.125.141-2.25.141-3.375.093-1.219.14-2.344.14-3.375.094-1.125.141-1.922.141-2.39Zm16.875 97.171c0-5.343 1.453-9.234 4.359-11.671 3-2.438 6.891-3.657 11.672-3.657 1.875 0 3.609.047 5.203.141 1.688.094 3.282.328 4.782.703 1.5.375 2.953.938 4.359 1.688 1.5.75 3.047 1.828 4.641 3.234v-1.688c.093-.937.14-1.921.14-2.953v-4.781c-.094-1.687-.14-3.844-.14-6.469a50.4 50.4 0 0 0-.704-8.297 24.235 24.235 0 0 0-2.531-8.015c-1.219-2.531-3.234-4.453-6.047-5.766-1.968 0-3.797.328-5.484.985a115.571 115.571 0 0 0-5.063 2.109c-1.687.75-3.375 1.453-5.062 2.109-1.688.563-3.516.844-5.485.844 0-2.344.704-4.266 2.11-5.766a15.104 15.104 0 0 1 5.344-3.656 25.26 25.26 0 0 1 6.468-1.687c2.25-.282 4.219-.422 5.907-.422 1.687.281 3.234.609 4.64.984 1.5.375 2.86 1.125 4.078 2.25 1.313 1.125 2.485 2.86 3.516 5.203 1.125 2.25 2.063 5.438 2.813 9.563.843 4.125 1.546 9.375 2.109 15.75.656 6.281 1.172 14.015 1.547 23.203.187 1.219-.235 2.297-1.266 3.234-.937.844-2.25 1.594-3.937 2.25-1.688.563-3.61 1.078-5.766 1.547a68.766 68.766 0 0 1-6.328.844c-2.156.187-4.219.328-6.188.422-1.968.094-3.609.14-4.921.14-1.688 0-3.422-.281-5.204-.843a19.06 19.06 0 0 1-4.781-2.391 15.597 15.597 0 0 1-3.515-3.937c-.844-1.594-1.266-3.329-1.266-5.204Zm18.281-9.843c-4.687 1.312-7.969 2.906-9.844 4.781-1.875 1.781-2.718 3.516-2.531 5.203.281 1.688 1.406 3.234 3.375 4.641 1.969 1.312 4.359 2.203 7.172 2.672 2.813.375 5.859.14 9.141-.704 3.281-.937 6.422-2.718 9.422-5.343-1.126-2.719-2.25-4.782-3.376-6.188-1.124-1.5-2.343-2.625-3.656-3.375-1.312-.75-2.765-1.219-4.359-1.406-1.594-.188-3.375-.281-5.344-.281Zm90.422-72.563 5.344 89.156c8.343 0 16.687-.515 25.031-1.546a979.049 979.049 0 0 1 25.875-3.094l.563 4.64c-.094 0-.985.141-2.672.422-1.594.188-3.75.469-6.469.844-2.625.281-5.625.609-9 .984l-10.125 1.125c-3.375.375-6.61.75-9.703 1.125-3.094.375-5.766.657-8.016.844h-.703a5.217 5.217 0 0 1-1.266.141h-2.531c-2.062 0-3.75-1.078-5.062-3.235-1.313-2.25-2.391-5.25-3.235-9-.844-3.843-1.453-8.203-1.828-13.078a386.06 386.06 0 0 1-.844-15.468 462.434 462.434 0 0 1-.281-16.172c.094-5.438.141-10.547.141-15.328 0-4.875-.047-9.282-.141-13.219 0-3.938-.141-6.985-.422-9.141h5.344Zm62.859 39.938c0-.469.282-.938.844-1.407a8.464 8.464 0 0 1 2.25-1.125 15.197 15.197 0 0 1 2.672-.562c.844-.094 1.453.047 1.828.422.563 11.625 1.641 20.906 3.234 27.844 1.688 6.843 3.563 11.859 5.626 15.046 2.156 3.188 4.453 4.829 6.89 4.922 2.438 0 4.828-1.031 7.172-3.093 2.344-2.157 4.5-5.063 6.469-8.719 2.062-3.656 3.703-7.594 4.922-11.813 1.312-4.218 2.109-8.437 2.39-12.656.281-4.219-.093-7.969-1.125-11.25l8.438-.984c.094 1.406.328 3.75.703 7.031a340.49 340.49 0 0 1 1.406 10.969c.563 4.031 1.172 8.25 1.828 12.656a470.773 470.773 0 0 1 1.688 12.375c.469 3.75.89 6.984 1.265 9.703.375 2.625.563 4.266.563 4.922H453.5l-6.609-24.328a59.345 59.345 0 0 1-4.782 9.422c-1.875 3-3.937 5.625-6.187 7.875-2.156 2.25-4.453 4.031-6.891 5.343-2.437 1.219-4.875 1.735-7.312 1.547-2.344-.281-4.641-1.406-6.891-3.375-2.25-1.968-4.359-5.062-6.328-9.281-1.875-4.312-3.516-9.844-4.922-16.594-1.406-6.75-2.437-15.047-3.094-24.89ZM467 371.245c-.188-1.5-.375-3.656-.562-6.469-.094-2.906-.235-6.14-.422-9.703-.094-3.656-.188-7.453-.282-11.39-.093-3.938-.187-7.688-.281-11.25-.094-3.563-.234-6.75-.422-9.563-.093-2.906-.281-5.109-.562-6.609 0-.094-.047-.328-.141-.703 0-.375-.047-.797-.14-1.266v-1.969c1.406-1.125 2.578-1.5 3.515-1.125 1.031.375 1.875 1.219 2.531 2.531.657 1.219 1.125 2.766 1.407 4.641.281 1.875.468 3.75.562 5.625.188 1.875.281 3.609.281 5.203v3.235a105.6 105.6 0 0 1 .844-5.625 45.63 45.63 0 0 1 1.688-6.61c.75-2.25 1.64-4.453 2.672-6.609 1.124-2.25 2.484-4.219 4.078-5.906 1.593-1.688 3.375-3 5.343-3.938 2.063-.937 4.407-1.312 7.032-1.125 4.125.188 7.5 1.313 10.125 3.375 2.718 2.063 4.828 4.828 6.328 8.297 1.594 3.469 2.718 7.453 3.375 11.953.75 4.5 1.219 9.281 1.406 14.344.281 5.062.375 10.219.281 15.469a818.407 818.407 0 0 0-.14 14.906 9.4 9.4 0 0 0-2.532.984c-.843.375-1.546.516-2.109.422-.563 0-.984-.375-1.266-1.125-.187-.844-.093-2.437.282-4.781.093-1.688.234-4.266.421-7.735.282-3.562.376-7.5.282-11.812 0-4.313-.235-8.766-.703-13.359-.469-4.594-1.36-8.766-2.672-12.516-1.219-3.844-3-6.938-5.344-9.281-2.344-2.438-5.391-3.657-9.141-3.657-3.843 1.594-7.078 4.594-9.703 9-2.531 4.407-4.593 9.563-6.187 15.469-1.5 5.906-2.625 12.328-3.375 19.266a247.543 247.543 0 0 0-1.125 20.109c-.188-.094-.563-.14-1.125-.14h-1.688l-1.687-.282c-.469-.093-.75-.187-.844-.281Zm54.844-11.391c0-5.343 1.453-9.234 4.359-11.671 3-2.438 6.891-3.657 11.672-3.657 1.875 0 3.609.047 5.203.141 1.688.094 3.281.328 4.781.703 1.5.375 2.953.938 4.36 1.688 1.5.75 3.047 1.828 4.64 3.234v-1.688c.094-.937.141-1.921.141-2.953v-4.781c-.094-1.687-.141-3.844-.141-6.469 0-2.718-.234-5.484-.703-8.297a24.235 24.235 0 0 0-2.531-8.015c-1.219-2.531-3.234-4.453-6.047-5.766-1.969 0-3.797.328-5.484.985a115.571 115.571 0 0 0-5.063 2.109c-1.687.75-3.375 1.453-5.062 2.109-1.688.563-3.516.844-5.485.844 0-2.344.704-4.266 2.11-5.766a15.104 15.104 0 0 1 5.344-3.656 25.26 25.26 0 0 1 6.468-1.687c2.25-.282 4.219-.422 5.906-.422 1.688.281 3.235.609 4.641.984 1.5.375 2.859 1.125 4.078 2.25 1.313 1.125 2.485 2.86 3.516 5.203 1.125 2.25 2.062 5.438 2.812 9.563.844 4.125 1.547 9.375 2.11 15.75.656 6.281 1.172 14.015 1.547 23.203.187 1.219-.235 2.297-1.266 3.234-.938.844-2.25 1.594-3.938 2.25-1.687.563-3.609 1.078-5.765 1.547a68.766 68.766 0 0 1-6.328.844 160.23 160.23 0 0 1-6.188.422c-1.969.094-3.609.14-4.922.14-1.687 0-3.421-.281-5.203-.843a19.06 19.06 0 0 1-4.781-2.391 15.62 15.62 0 0 1-3.516-3.937c-.843-1.594-1.265-3.329-1.265-5.204Zm18.281-9.843c-4.687 1.312-7.969 2.906-9.844 4.781-1.875 1.781-2.719 3.516-2.531 5.203.281 1.688 1.406 3.234 3.375 4.641 1.969 1.312 4.359 2.203 7.172 2.672 2.812.375 5.859.14 9.141-.704 3.281-.937 6.421-2.718 9.421-5.343-1.125-2.719-2.25-4.782-3.375-6.188-1.125-1.5-2.343-2.625-3.656-3.375-1.312-.75-2.766-1.219-4.359-1.406-1.594-.188-3.375-.281-5.344-.281ZM178.077 402.44c1.717 0 2.79.681 3.22 2.044.13-.205.326-.448.588-.728.28-.28.616-.541 1.008-.784s.84-.448 1.344-.616a5.29 5.29 0 0 1 1.68-.252c.84 0 1.642.168 2.408.504a5.86 5.86 0 0 1 2.044 1.456c.597.635 1.073 1.419 1.428 2.352.354.933.532 1.988.532 3.164 0 1.157-.178 2.212-.532 3.164-.336.952-.803 1.773-1.4 2.464a6.274 6.274 0 0 1-2.016 1.568 5.432 5.432 0 0 1-2.408.56c-.878 0-1.69-.168-2.436-.504-.728-.355-1.335-.756-1.82-1.204v7.532h-2.52v-16.996c0-.635-.159-1.083-.476-1.344-.299-.28-.691-.42-1.176-.42l.532-1.96Zm11.676 7.224c0-.84-.122-1.587-.364-2.24-.224-.672-.542-1.241-.952-1.708a3.889 3.889 0 0 0-1.4-1.064 3.938 3.938 0 0 0-1.68-.364c-.803 0-1.531.205-2.184.616-.635.392-1.12.821-1.456 1.288v7.168a6.795 6.795 0 0 0 1.652 1.26 4.63 4.63 0 0 0 2.1.476c.634 0 1.213-.131 1.736-.392.522-.261.97-.625 1.344-1.092a5.15 5.15 0 0 0 .896-1.708c.205-.672.308-1.419.308-2.24ZM201.996 417h-2.52v-14.56h2.52V417Zm-1.26-17.052c-.485 0-.905-.168-1.26-.504a1.772 1.772 0 0 1-.504-1.26c0-.541.159-.971.476-1.288.318-.317.747-.476 1.288-.476.486 0 .896.177 1.232.532.355.336.532.747.532 1.232 0 .541-.158.971-.476 1.288-.317.317-.746.476-1.288.476Zm8.288 2.492h10.948v1.932l-8.008 10.388h8.148V417h-11.256v-1.988l8.036-10.388h-7.868v-2.184Zm16.848 0h10.948v1.932l-8.008 10.388h8.148V417h-11.256v-1.988l8.036-10.388h-7.868v-2.184Zm16.685 7.364a8.86 8.86 0 0 1 .504-3.024c.336-.952.803-1.773 1.4-2.464a6.679 6.679 0 0 1 2.184-1.624 6.663 6.663 0 0 1 2.8-.588c.84 0 1.596.149 2.268.448.691.28 1.288.635 1.792 1.064v-1.176h2.296v11.032c0 .709.168 1.176.504 1.4.355.205.737.308 1.148.308l-.532 1.96c-1.792 0-2.875-.728-3.248-2.184a8.374 8.374 0 0 1-.784.896 5.065 5.065 0 0 1-2.24 1.288c-.467.131-.98.196-1.54.196a6.297 6.297 0 0 1-2.576-.532 6.315 6.315 0 0 1-2.072-1.512c-.579-.653-1.045-1.437-1.4-2.352-.336-.933-.504-1.979-.504-3.136Zm7.112 5.292a4.25 4.25 0 0 0 2.016-.504 4.985 4.985 0 0 0 1.596-1.316v-7.812a6.416 6.416 0 0 0-1.68-.84 5.376 5.376 0 0 0-1.904-.336 4.32 4.32 0 0 0-1.848.392 4.24 4.24 0 0 0-1.456 1.12c-.392.467-.7 1.036-.924 1.708a6.958 6.958 0 0 0-.336 2.212c0 .784.112 1.512.336 2.184.224.653.541 1.223.952 1.708.411.467.887.831 1.428 1.092.56.261 1.167.392 1.82.392Zm29.26-10.22a6.865 6.865 0 0 1 1.988-1.96c.821-.541 1.792-.812 2.912-.812 1.643 0 2.865.495 3.668 1.484.821.989 1.232 2.296 1.232 3.92V417h-2.52v-9.212c0-1.064-.243-1.904-.728-2.52-.485-.635-1.176-.952-2.072-.952-.429 0-.849.084-1.26.252a5.013 5.013 0 0 0-1.204.644c-.373.28-.728.607-1.064.98-.317.373-.607.765-.868 1.176V417h-2.52v-14.56h2.436v2.436Zm16.794 4.928a8.86 8.86 0 0 1 .504-3.024c.336-.952.803-1.773 1.4-2.464a6.679 6.679 0 0 1 2.184-1.624 6.663 6.663 0 0 1 2.8-.588c.84 0 1.596.149 2.268.448.691.28 1.288.635 1.792 1.064v-1.176h2.296v11.032c0 .709.168 1.176.504 1.4.355.205.738.308 1.148.308l-.532 1.96c-1.792 0-2.874-.728-3.248-2.184a8.374 8.374 0 0 1-.784.896c-.28.28-.606.532-.98.756a5.12 5.12 0 0 1-1.26.532c-.466.131-.98.196-1.54.196a6.3 6.3 0 0 1-2.576-.532 6.325 6.325 0 0 1-2.072-1.512c-.578-.653-1.045-1.437-1.4-2.352-.336-.933-.504-1.979-.504-3.136Zm7.112 5.292c.71 0 1.382-.168 2.016-.504a4.985 4.985 0 0 0 1.596-1.316v-7.812a6.416 6.416 0 0 0-1.68-.84 5.376 5.376 0 0 0-1.904-.336 4.32 4.32 0 0 0-1.848.392 4.24 4.24 0 0 0-1.456 1.12c-.392.467-.7 1.036-.924 1.708a6.958 6.958 0 0 0-.336 2.212c0 .784.112 1.512.336 2.184.224.653.542 1.223.952 1.708.411.467.887.831 1.428 1.092.56.261 1.167.392 1.82.392Zm13.791-12.656c1.718 0 2.791.681 3.22 2.044.131-.205.327-.448.588-.728.28-.28.616-.541 1.008-.784s.84-.448 1.344-.616a5.29 5.29 0 0 1 1.68-.252c.84 0 1.643.168 2.408.504a5.85 5.85 0 0 1 2.044 1.456c.598.635 1.074 1.419 1.428 2.352.355.933.532 1.988.532 3.164 0 1.157-.177 2.212-.532 3.164-.336.952-.802 1.773-1.4 2.464a6.252 6.252 0 0 1-2.016 1.568 5.429 5.429 0 0 1-2.408.56 5.87 5.87 0 0 1-2.436-.504c-.728-.355-1.334-.756-1.82-1.204v7.532h-2.52v-16.996c0-.635-.158-1.083-.476-1.344-.298-.28-.69-.42-1.176-.42l.532-1.96Zm11.676 7.224c0-.84-.121-1.587-.364-2.24-.224-.672-.541-1.241-.952-1.708a3.88 3.88 0 0 0-1.4-1.064 3.931 3.931 0 0 0-1.68-.364 4.02 4.02 0 0 0-2.184.616c-.634.392-1.12.821-1.456 1.288v7.168a6.814 6.814 0 0 0 1.652 1.26 4.636 4.636 0 0 0 2.1.476c.635 0 1.214-.131 1.736-.392a3.976 3.976 0 0 0 1.344-1.092 5.132 5.132 0 0 0 .896-1.708c.206-.672.308-1.419.308-2.24Zm20.532.056c0-.728-.121-1.419-.364-2.072a4.976 4.976 0 0 0-.98-1.708 4.468 4.468 0 0 0-1.484-1.148 3.861 3.861 0 0 0-1.848-.448c-1.474 0-2.622.485-3.444 1.456-.821.971-1.232 2.259-1.232 3.864 0 .728.112 1.428.336 2.1.243.653.57 1.232.98 1.736.43.485.924.877 1.484 1.176.579.28 1.204.42 1.876.42.728 0 1.382-.131 1.96-.392a4.038 4.038 0 0 0 1.456-1.092 4.861 4.861 0 0 0 .924-1.708c.224-.653.336-1.381.336-2.184Zm-11.928 0c0-1.176.187-2.231.56-3.164.374-.952.878-1.755 1.512-2.408a6.85 6.85 0 0 1 2.296-1.512 7.76 7.76 0 0 1 2.884-.532c1.008 0 1.951.177 2.828.532a6.773 6.773 0 0 1 2.324 1.512c.654.653 1.167 1.447 1.54 2.38.374.933.56 1.979.56 3.136s-.186 2.212-.56 3.164a6.932 6.932 0 0 1-1.512 2.408 6.898 6.898 0 0 1-2.324 1.568c-.877.355-1.829.532-2.856.532a7.503 7.503 0 0 1-2.912-.56 6.984 6.984 0 0 1-2.296-1.568 7.57 7.57 0 0 1-1.512-2.408c-.354-.933-.532-1.96-.532-3.08Zm23.875 2.464c0 1.008.205 1.755.616 2.24.429.485 1.017.728 1.764.728.354 0 .7-.037 1.036-.112a7.11 7.11 0 0 0 .896-.308l.616 2.044c-.336.149-.756.28-1.26.392a7.242 7.242 0 0 1-1.624.168 5.71 5.71 0 0 1-1.82-.28 3.865 3.865 0 0 1-1.428-.868c-.411-.392-.738-.896-.98-1.512-.224-.616-.336-1.363-.336-2.24V396.28h2.52v15.904Zm12.125-1.428c.168 1.363.644 2.427 1.428 3.192.784.765 1.82 1.148 3.108 1.148.84 0 1.596-.084 2.268-.252.672-.187 1.316-.42 1.932-.7l.588 2.156c-.672.317-1.428.569-2.268.756-.84.187-1.783.28-2.828.28s-1.988-.168-2.828-.504a6.266 6.266 0 0 1-2.156-1.484c-.579-.653-1.027-1.447-1.344-2.38-.317-.952-.476-2.035-.476-3.248 0-1.083.159-2.091.476-3.024.317-.933.765-1.736 1.344-2.408a5.94 5.94 0 0 1 2.072-1.596c.803-.392 1.699-.588 2.688-.588 1.045 0 1.96.177 2.744.532.784.355 1.437.84 1.96 1.456a6.186 6.186 0 0 1 1.176 2.156c.261.821.392 1.689.392 2.604 0 .653-.028 1.288-.084 1.904h-10.192Zm3.948-6.468c-1.101 0-2.007.373-2.716 1.12-.691.747-1.111 1.848-1.26 3.304h7.98c0-1.419-.355-2.511-1.064-3.276-.709-.765-1.689-1.148-2.94-1.148Zm14.475-5.908h1.932v4.592h4.032v2.184h-4.032v7.028c0 .541.056.999.168 1.372.13.373.298.672.504.896.205.224.448.392.728.504.298.093.606.14.924.14.466 0 .905-.075 1.316-.224.41-.149.802-.327 1.176-.532l.7 2.016c-.374.224-.878.439-1.512.644a5.933 5.933 0 0 1-1.988.336c-1.4 0-2.511-.457-3.332-1.372-.803-.915-1.204-2.24-1.204-3.976v-6.832h-2.52v-2.184h2.576l.532-4.592Zm12.094 11.424a8.86 8.86 0 0 1 .504-3.024c.336-.952.802-1.773 1.4-2.464a6.679 6.679 0 0 1 2.184-1.624 6.66 6.66 0 0 1 2.8-.588c.84 0 1.596.149 2.268.448.69.28 1.288.635 1.792 1.064v-1.176h2.296v11.032c0 .709.168 1.176.504 1.4.354.205.737.308 1.148.308l-.532 1.96c-1.792 0-2.875-.728-3.248-2.184a8.487 8.487 0 0 1-.784.896 5.065 5.065 0 0 1-2.24 1.288c-.467.131-.98.196-1.54.196a6.293 6.293 0 0 1-2.576-.532 6.315 6.315 0 0 1-2.072-1.512c-.579-.653-1.046-1.437-1.4-2.352-.336-.933-.504-1.979-.504-3.136Zm7.112 5.292a4.25 4.25 0 0 0 2.016-.504 5.007 5.007 0 0 0 1.596-1.316v-7.812a6.416 6.416 0 0 0-1.68-.84 5.38 5.38 0 0 0-1.904-.336 4.32 4.32 0 0 0-1.848.392 4.231 4.231 0 0 0-1.456 1.12c-.392.467-.7 1.036-.924 1.708a6.958 6.958 0 0 0-.336 2.212c0 .784.112 1.512.336 2.184.224.653.541 1.223.952 1.708.41.467.886.831 1.428 1.092.56.261 1.166.392 1.82.392Zm17.225-10.22a6.865 6.865 0 0 1 1.988-1.96c.821-.541 1.792-.812 2.912-.812 1.642 0 2.865.495 3.668 1.484.821.989 1.232 2.296 1.232 3.92V417h-2.52v-9.212c0-1.064-.243-1.904-.728-2.52-.485-.635-1.176-.952-2.072-.952-.429 0-.849.084-1.26.252a5.013 5.013 0 0 0-1.204.644c-.373.28-.728.607-1.064.98-.317.373-.607.765-.868 1.176V417h-2.52v-14.56h2.436v2.436Zm16.794 4.928a8.86 8.86 0 0 1 .504-3.024c.336-.952.803-1.773 1.4-2.464a6.679 6.679 0 0 1 2.184-1.624 6.663 6.663 0 0 1 2.8-.588c.84 0 1.596.149 2.268.448.691.28 1.288.635 1.792 1.064v-1.176h2.296v11.032c0 .709.168 1.176.504 1.4.355.205.737.308 1.148.308l-.532 1.96c-1.792 0-2.875-.728-3.248-2.184a8.374 8.374 0 0 1-.784.896 5.065 5.065 0 0 1-2.24 1.288c-.467.131-.98.196-1.54.196a6.297 6.297 0 0 1-2.576-.532 6.315 6.315 0 0 1-2.072-1.512c-.579-.653-1.045-1.437-1.4-2.352-.336-.933-.504-1.979-.504-3.136Zm7.112 5.292a4.25 4.25 0 0 0 2.016-.504 4.985 4.985 0 0 0 1.596-1.316v-7.812a6.416 6.416 0 0 0-1.68-.84 5.376 5.376 0 0 0-1.904-.336 4.32 4.32 0 0 0-1.848.392 4.24 4.24 0 0 0-1.456 1.12c-.392.467-.7 1.036-.924 1.708a6.958 6.958 0 0 0-.336 2.212c0 .784.112 1.512.336 2.184.224.653.541 1.223.952 1.708.411.467.887.831 1.428 1.092.56.261 1.167.392 1.82.392Z"/><g stroke="#000" stroke-linecap="round"><path stroke-width="3" d="M524.02 168.163c-9.921-11.209-15.957-25.887-16.02-41.963-.623-1.169-1.181-2.431-1.181-3.779 0-1.157.277-2.274.746-3.318a14.227 14.227 0 0 0 1.282-5.888c0-.957-.442-1.847-.345-2.816.051-.509.214-1.178.427-1.814.212-.633.49-1.281.791-1.733.461-.692 1.09-1.205 1.74-1.637a63.674 63.674 0 0 1 9.631-17.922c-.136-.953-.237-1.949-.027-2.897.188-.843.742-1.408 1.209-1.884.268-.273.484-.56.681-.89.225-.377.507-.883 1.065-1.246.552-.36 1.023-.869 1.544-1.432.643-.695 1.37-1.499 2.345-1.92 1.021-.44 2.171-.368 3.245-.197a64.616 64.616 0 0 1 13.529-8.636c1.05-1.509 2.286-3.108 4.031-3.814.835-.337 1.551-.9 2.381-1.243 2.237-.924 5.033-1.91 7.481-1.91 1.195 0 2.508.131 3.677.318 1.475.236 2.954.454 4.439.663a65.846 65.846 0 0 1 11.285-.03c2.263-.682 4.343-1.196 6.747-1.174.666.006 1.368.065 2.028.303 1.245.448 2.41 1.113 3.703 1.422 1.311.314 2.426 1.117 3.707 1.507 1.021.31 2.131.58 3.179.818 1.546.352 2.501 1.868 3.136 3.212a64.533 64.533 0 0 1 8.484 4.88 5.8 5.8 0 0 1 1.62.035c1.301.226 2.312 1.127 3.439 1.745l.002.001c.883.484 1.637 1.038 2.394 1.69.609.526 1.416.772 2.057 1.282.847.674 1.495 1.431 2.287 2.047.495.385.695.88.797 1.344.248 1.122.638 2.504.465 3.644a64.18 64.18 0 0 1 4.663 6.272c.823.291 1.63.742 2.105 1.352.486.625 1.271.935 1.797 1.526a9.504 9.504 0 0 1 1.325 1.974c.515 1.06.661 2.627.38 3.751a8.08 8.08 0 0 1-.392 1.138 63.14 63.14 0 0 1 3.49 10.691c.483.109.992.141 1.352.524.469.499.461 1.209.601 1.838.302 1.36.009 2.752.046 4.126.008.304.085.609.186.968.266.931.426 1.887.426 2.857 0 1.129-.492 2.147-.998 3.127.478 35.424-29.22 64.873-64.498 64.873-14.571 0-28.013-4.793-38.812-12.877-.583-.118-1.186-.147-1.708-.466-.793-.484-1.43-1.183-2.23-1.655-1.521-.899-3.35-2.061-4.523-3.569-.799-1.027-1.098-2.107-1.211-3.218Z" clip-rule="evenodd"/><path stroke-width="2" d="M543.432 100.272c1.068.176 2.068.323 3.568 0 1.5-.324 2.503-.72 3.342-1.465.664-.591 1.102-1.858.897-2.72-.252-1.066-.481-1.826-1.486-2.38-.602-.33-2.256-.359-2.866-.042-1.073.556-2.019 1.051-2.968 1.816-.725.584-.983 1.709-1.217 2.552-.178.64-.338 2.062.73 2.239Zm-4.032 14.265c-.131-.82.024-1.739-.225-2.529-.204-.648-.68-1.612-1.233-2.012-1.012-.731-2.606-.778-3.761-.454-2.941.823-4.342 4.756-3.638 7.573m-9.192-9.641c-2.081.375-3.251 1.902-3.251 3.948 0 .782.305 1.542.218 2.33-.041.369-.175.763-.274 1.121-.19.684.124.367.498-.006.701-.702 1.254-1.01 2.136-1.452.867-.433 1.208-1.069 1.626-1.905.716-1.434.6-3.371-.953-4.148m-.673 24.545c1.062-1.517 3.498-2.844 5.381-2.373 4.018 1.005 5.605 6.831 5.605 10.457 0 2.479-.227 6.543-3.082 7.66-1.871.732-3.883-.144-5.487-1.171-1.802-1.153-2.917-3.979-3.401-5.96-.694-2.838-.768-6.11.984-8.613Zm9.457-10.935c-.207 1.501.227 2.749 1.808 3.232 1.097.335 2.136.487 3.201-.031 1.239-.603 2.022-1.261 2.644-2.505.459-.919.805-2.05.974-3.061m12.973 7.319c-2.848 0-4.734 2.26-5.388 4.877-.519 2.075-1.416 4.553-1.648 6.637-.283 2.549-.218 4.79 2.024 6.472 1.471 1.103 4.392 3.16 6.367 2.393 2.094-.815 2.78-2.745 4.47-3.778 1.816-1.11 3.314-2.261 5.283-3.191 3.114-1.47 4.695-7.461 1.482-9.549-2.255-1.466-4.767-2.608-7.307-3.454m-9.888-13.546c1.017-1.016 2.87-1.839 4.334-1.354 2.01.67 3.736 2.568 2.649 4.741-.257.514-.757.851-1.023 1.354-.231.438-.32.912-.542 1.355-.199.398-.405 1.083-.948 1.083-.487 0-.727-.623-1.084-.88-.964-.697-1.714-1.089-2.837-1.483-.952-.333-1.904-.99-1.904-2.107 0-1.389.416-1.77 1.355-2.709Zm18.693-12.597c-2.575.515-4.936 3.486-6.096 5.689-1.347 2.56-2.977 8.701.918 10.294 2.246.919 4.355 1.275 6.683.941 3.148-.452 8.194-4.779 10.272-6.961 2.069-2.172 4.461-6.546 2.167-9.414-2.317-2.896-7.037-1.768-10.152-1.768m-39.074 56.407c-.57-.724-1.604-1.076-2.418-.559-.926.59-1.303 1.273-1.303 2.373 0 .895.651 1.916 1.509 2.279.561.236 2.034.233 2.605 0 1.549-.634 2.398-2.901 2.398-4.465 0-.922-.135-1.715-.651-2.512-.609-.939-1.659-1.615-2.512-2.326m11.73 23.616c-3.009-1.533-7.872-5.543-3.609-8.858 3.552-2.762 6.239 1.35 9.515 2.26 3.468.964 6.568 3.099 7.382 6.763.895 4.028-5.264 3.385-7.546 2.624m9.187-10.007c1.306 1.058 2.01 3.053 3.454 3.846 1.125.619 2.082.589 3.272.292 2.395-.599 4.481-.516 6.881-.036 3.866.773.368 4.565-1.14 5.486-1.792 1.095-5.398.777-6.398-1.221m-12.467-24.115c-1.505-.271-2.57-.253-3.937.583-1.047.639-1.76 1.387-2.206 2.534-.787 2.023.468 5.066 2.37 6.069 1.721.909 4.669 1.084 5.833-.82.516-.845 1.057-1.742 1.057-2.789 0-.994-.952-2.166-1.477-2.953m21.327-14.272c-.725 1.273-1.787 1.993-2.662 3.117-1.282 1.649-3.344 2.886-3.408 5.25-.063 2.336.155 3.799 1.558 5.742 1.301 1.801 3.485 2.882 4.676 4.839 1.65 2.711 2.673 6.514 5.869 7.792 2.442.977 4.294.164 6.762.164 5.061 0 5.876-6.327 9.308-8.626m-18.658-18.442c2.328-2.274 5.817-4.684 9.186-4.593 1.813.049 2.205 2.342 3.609 3.044 1.135.567 2.899-.747 4.102-.747 2.052 0 1.686 2.258 2.296 3.445.699 1.358 3.065.955 3.773 2.297 1.272 2.408 1.818 5.892-.328 8.038m-4.505 31.067c-2.079.374-7.292.866-5.352-3.014 1.529-3.059 4.35-4.71 7.228-6.293 2.483-1.366 7.838-3.426 10.074-.693.807.987 1.06 2.579.468 3.765-.61 1.22-1.835 2.71-3.066 3.325M609 160.948c-.282.406-1.315 1.146-1.935.836-.467-.233-.696-.774-.696-1.264 0-.936.378-1.83 1.045-2.496.493-.493 1.681-1.304 2.438-1.136.834.186 1.067 1.583.465 2.065m9.753-1.277c-.847-2.701.456-5.789 1.652-8.18 1.063-2.126 3.693-5.789 6.476-4.825 1.321.457 1.394 2.001 1.394 3.187 0 2.365-2.13 5.733-3.374 7.676-.836 1.307-2.119 2.634-3.593 3.187m-8.012-16.489c-.302-2.186.372-4.068 1.742-5.78 1.146-1.432 3.873-3.092 5.444-1.296 1.191 1.36.563 4.262-.451 5.567-.623.801-1.26 1.807-2.09 2.412-.603.44-1.824.955-2.555.955m8.128-33.905c.034-1.447 1.044-5.8 3.225-4.064 1.447 1.15 1.826 3.482 1.536 5.225m-6.154 4.528c-.388 2.81 2.369 11.295 6.618 9.96 1.011-.318 1.51-2.9 1.51-3.806m-36.46-1.277c.029-1.7.73-3.221 1.6-4.619.983-1.58 2.561-2.371 4.27-2.986.939-.338 3.056-.608 3.999-.174 1.507.692 2.526 1.771 3.078 3.302.392 1.09.616 2.562.516 3.722-.099 1.134-.955 2.979-1.968 3.542-1.257.698-2.387 1.605-3.89 1.735-1.405.122-2.804-.121-4.006-.922m-6.141-26.705c-.826.877-.704 2.042-.463 3.127.513 2.309 4.477 2.699 6.254 1.827 1.44-.707 2.373-1.425 3.332-2.754 2.373-3.285-.938-6.949-4.349-6.949-1.483 0-2.711.34-3.732 1.506m20.036-2.548c1.011-2.66 4.305-2.156 5.443 0 .999 1.892 3.706 3.176 3.706 5.565 0 3.261-2.706 1.01-3.815-.238-1.138-1.279-4.871-1.537-4.871-3.706m-17.835-10.77c-.817-.273-1.613-.548-2.458-.72-.775-.16-1.447-.17-2.174-.554-.738-.39-1.273-.925-1.853-1.506-.434-.433-1.198-1.254-1.364-1.853-.968-3.484 2.359-5.095 5.301-5.095h2.342c.848 0 1.417.253 2.149.669.588.334 1.322.328 1.879.746.592.444 1.479.9 1.943 1.48.997 1.247 1.763 2.305 1.763 3.938 0 1.701-1.773 2.2-3.243 2.2M563.942 79.5c.509-.842 1.333-2.367-.173-2.668-1.138-.228-1.984.135-2.87.84-.688.548-1.694 2.027-1.481 2.983.219.988 2.249.503 2.746.09m-3.379 10.846c.625.85.505 1.514.336 2.49-.128.743-.247 1.466-.247 2.223 0 .645-.018 1.842.889 1.867.783.021 1.584-.662 2.134-1.151 1.252-1.113 2.579-1.964 2.579-3.809 0-1.647-2.275-2.509-3.646-2.509m-23.823.466c.057-2.899-2.558-6.369-5.298-3.152-1.77 2.078-2.56 5.382-1.97 8.039.392 1.765 1.245 5.324 3.879 3.292.78-.601 1.341-2.194 1.498-3.135m-14.456-2.624c.422-.811 1.37-1.972 2.329-2.205 1.076-.262 1.627.51 1.873 1.395.192.69-.017 1.798-.304 2.435-.46 1.022-.779 1.996-1.569 2.83-.722.761-1.388 1.62-2.227 2.249-.35.262-.663.53-1.114.58-.291.032-.983.113-1.204-.107-.409-.41-.441-1.802-.259-2.323.313-.894.843-1.646 1.362-2.424m-4.116 54.458c.038-2.201 2.086-4.075 3.374-1.499.428.854.324 1.387.109 2.249-.182.725-.034 1.656-.034 2.4 0 .727.455 1.477.667 2.174.257.843.725 1.68 1.133 2.474.45.876 1.005 1.665 1.658 2.4.745.838.934 1.413.441 2.399m34.677 22.89c1.407-1.697 4.408-1.379 4.813 1.053m10.531.452c1.441.49 2.507.777 3.911.075 1.079-.54 2.162-1 3.234-1.513 1.107-.529 1.861-.941 3.118-.969 1.103-.025 2.245-.409 3.276-.752m-8.124-9.929c-1.65 1.047-2.05 4.389.335 4.931 1.652.375 4.517.579 5.984-.451.86-.605 1.896-.798 2.44-1.739.42-.727.719-1.745.719-2.591 0-.958-.447-1.802-1.354-2.256-.761-.38-1.619 0-2.407 0m-.602-45.13c-1.275-.769-2.405-1.949-1.195-3.309.678-.763 2.053-1.049 3-.602 1.082.511 1.715 1.42 2.031 2.557.316 1.138-1.402 1.717-2.181 2.106"/></g></g><defs><clipPath id="a"><path fill="#fff" d="M0 0h700v480H0z"/></clipPath></defs></svg>