<svg class="svg-icon" style="width: 1em; height: 1em;vertical-align: middle;fill: currentColor;overflow: hidden;" viewBox="0 0 1024 1024" version="1.1" xmlns="http://www.w3.org/2000/svg"><path d="M755.626667 398.08c-2.986667 197.12-128.853333 331.946667-317.013334 340.48-77.653333 3.413333-133.546667-21.333333-182.613333-52.48 57.173333 8.96 128-13.653333 166.4-46.08-56.32-5.973333-89.173333-34.56-104.96-80.213333 16.213333 2.56 33.28 1.706667 48.64-1.28-50.773333-17.066667-87.04-48.64-88.746667-114.346667 14.08 6.826667 29.013333 12.8 48.64 14.08-37.973333-21.76-65.706667-100.693333-33.706666-152.746667 56.32 61.866667 124.16 112.213333 235.52 119.04-28.16-119.466667 130.133333-184.32 196.266666-104.533333 28.16-5.12 50.773333-15.36 72.96-27.306667-8.96 27.306667-26.453333 47.36-47.786666 62.72 23.04-2.986667 43.946667-8.533333 61.44-17.493333-10.666667 22.613333-34.56 43.093333-55.04 60.16M853.333333 85.333333H170.666667a85.333333 85.333333 0 0 0-85.333334 85.333334v682.666666a85.333333 85.333333 0 0 0 85.333334 85.333334h682.666666a85.333333 85.333333 0 0 0 85.333334-85.333334V170.666667a85.333333 85.333333 0 0 0-85.333334-85.333334z" fill="" /></svg>